PathFileType	4	(X/Y/Z)	C:\Users\Basilio\Documents\Thesis Gigler\squatting_fais\c3dfiles\054\SJ_pre4\markers_experimental.trc
DataRate	CameraRate	NumFrames	NumMarkers	Units	OrigDataRate	OrigDataStartFrame	OrigNumFrames
200.000000	200.000000	4	61	mm	200.000000	791	1582
Frame#	Time	FHD			LBHD			RBHD			C7			T10			CLAV			LSHO			LUUPA			LMUPA			LDUPA			LLEP			LMEP			LRAD			LUL			LRFIN			RSHO			RUPA1			RMUPA			RDUPA			RLEP			RMEP			RRAD			RUL			RUFIN			LASI			RASI			USACR			LSACR			RSACR			LTHI1			LTHI2			LTHI3			LTHI4			LLFC			LMFC			LTIB1			LTIB2			LTIB3			LTIB4			LLMAL			LMMAL			LHEE			LMT1			LMT2			LMT5			RTHI			RTHI2			RTHI3			RTHI4			RLFC			RMFC			RTIB1			RTIB2			RTIB3			RTIB4			RLMAL			RMMAL			RHEE			RMT1			RMT2			RMT5			
		X1	Y1	Z1	X2	Y2	Z2	X3	Y3	Z3	X4	Y4	Z4	X5	Y5	Z5	X6	Y6	Z6	X7	Y7	Z7	X8	Y8	Z8	X9	Y9	Z9	X10	Y10	Z10	X11	Y11	Z11	X12	Y12	Z12	X13	Y13	Z13	X14	Y14	Z14	X15	Y15	Z15	X16	Y16	Z16	X17	Y17	Z17	X18	Y18	Z18	X19	Y19	Z19	X20	Y20	Z20	X21	Y21	Z21	X22	Y22	Z22	X23	Y23	Z23	X24	Y24	Z24	X25	Y25	Z25	X26	Y26	Z26	X27	Y27	Z27	X28	Y28	Z28	X29	Y29	Z29	X30	Y30	Z30	X31	Y31	Z31	X32	Y32	Z32	X33	Y33	Z33	X34	Y34	Z34	X35	Y35	Z35	X36	Y36	Z36	X37	Y37	Z37	X38	Y38	Z38	X39	Y39	Z39	X40	Y40	Z40	X41	Y41	Z41	X42	Y42	Z42	X43	Y43	Z43	X44	Y44	Z44	X45	Y45	Z45	X46	Y46	Z46	X47	Y47	Z47	X48	Y48	Z48	X49	Y49	Z49	X50	Y50	Z50	X51	Y51	Z51	X52	Y52	Z52	X53	Y53	Z53	X54	Y54	Z54	X55	Y55	Z55	X56	Y56	Z56	X57	Y57	Z57	X58	Y58	Z58	X59	Y59	Z59	X60	Y60	Z60	X61	Y61	Z61	

792	3.955	167.0052795410157	1138.93505859375	-869.281188964844	6.23653030395508	1097.7373046875	-948.0352783203127	-17.85618972778321	1096.006103515625	-809.8551025390627	-68.71398925781251	1017.767333984375	-863.6507568359377	-350.2774963378907	847.3355712890627	-903.5125122070315	-7.526028633117678	868.4357910156252	-876.1672363281252	2.634434700012207	955.8270263671877	-1025.489379882813	-137.6430816650391	967.385925292969	-1203.136962890625	-140.0128021240235	919.0559082031252	-1219.098754882813	-181.4569854736328	945.006774902344	-1254.325561523438	-226.8152008056641	902.683044433594	-1283.27685546875	-291.7866516113282	944.3244628906252	-1236.044677734375	-383.8467102050782	739.7488403320314	-1140.420776367188	-367.3631591796876	682.7150268554689	-1189.046752929688	-340.3108215332032	716.5351562500001	-1096.459838867188	6.07866430282593	923.672302246094	-712.7209472656251	-158.652816772461	915.0048828125002	-544.8196411132814	-177.16259765625	869.9683837890627	-540.3110351562501	-217.9591979980469	902.0838623046877	-507.8020019531251	-265.8614807128907	880.7718505859377	-496.0557250976564	-308.4649353027344	936.2840576171877	-548.5332031250001	-428.5700683593751	757.8452148437501	-685.2656250000001	-375.4598693847657	730.2700805664064	-715.0313720703126	-421.4435119628907	697.6141967773439	-634.3453369140626	-349.9330444335938	628.1194458007814	-1030.468505859375	-340.4645996093751	639.6217651367189	-772.294128417969	-436.6275939941407	794.3747558593752	-907.5737915039065	-463.6802062988282	776.7960205078127	-935.5986938476565	-465.7500000000001	777.312927246094	-878.7604980468752	-401.0506286621095	569.0474853515626	-1176.828002929688	-321.2342224121094	560.3142700195314	-1205.836669921875	-295.1163330078126	597.3317260742189	-1192.894287109375	-291.8472290039063	509.5053710937501	-1220.230102539063	-175.0803985595703	442.3657226562501	-1251.279907226563	-109.1783065795899	425.9692687988282	-1131.462646484375	-181.6782684326172	283.1001892089844	-1215.7177734375	-261.2227783203126	270.7524414062501	-1255.054565429688	-223.8270416259766	250.708236694336	-1239.752685546875	-258.2742309570313	182.8537139892578	-1199.959594726563	-382.1127319335938	89.97244262695314	-1218.889526367188	-325.5714111328126	98.41404724121097	-1138.065795898438	-440.0171508789064	52.95916748046876	-1147.763305664063	-222.8646240234376	53.56064224243165	-1195.632080078125	-230.464340209961	57.1534881591797	-1244.7392578125	-293.4424743652344	37.38863372802735	-1282.16650390625	-361.3068237304688	537.5035400390626	-613.4042358398439	-297.8578491210938	545.9421997070314	-591.5465087890626	-277.8852844238282	572.3679809570314	-596.8514404296876	-245.6539306640626	482.291717529297	-573.2624511718751	-200.2140197753907	440.4337463378907	-554.5363159179689	-117.7944869995117	441.7505187988282	-667.6047363281251	-181.1712188720703	334.8540954589844	-549.7885131835939	-287.0182495117188	303.9990234375001	-553.3195190429689	-248.0550994873047	277.9703063964844	-550.6936645507814	-251.2154693603516	227.7410278320313	-577.8000488281251	-381.1649169921876	92.12305450439455	-596.4119873046876	-319.1117248535157	99.18032836914065	-666.8261108398439	-432.6140441894532	50.74912643432619	-671.1801757812501	-215.8003234863282	51.57579421997072	-604.1967163085939	-231.5776367187501	55.39271545410158	-558.8841552734376	-293.8372802734376	34.60045623779298	-529.0021972656251	
793	3.96	167.1827087402344	1138.674438476563	-869.234313964844	6.435947418212892	1097.655029296875	-948.0337524414065	-17.81273841857911	1095.877807617188	-809.7508544921877	-68.63958740234376	1017.713745117188	-863.6524658203127	-350.2168884277344	847.3676757812502	-903.526550292969	-7.405360221862795	868.2996215820315	-876.1630859375002	2.711060762405396	955.6960449218752	-1025.509155273438	-137.5987701416016	967.295837402344	-1203.1611328125	-140.0151062011719	919.034118652344	-1219.102172851563	-181.3235015869141	944.9793090820315	-1254.310424804688	-226.7183990478516	902.6300048828127	-1283.260131835938	-291.6900939941407	944.331481933594	-1236.084716796875	-383.9091796875001	739.7448730468751	-1140.432006835938	-367.5149536132813	682.7089843750001	-1189.01953125	-340.3267517089844	716.5577392578126	-1096.462524414063	6.027918815612795	923.5108032226565	-712.6868896484376	-158.6311950683594	914.950622558594	-544.8027343750001	-177.2396850585938	869.965759277344	-540.2170410156251	-217.9994201660157	902.096374511719	-507.8035583496095	-265.9765319824219	880.7875976562502	-496.0469055175782	-308.4725036621094	936.3292236328127	-548.5623168945314	-428.6446228027345	757.9045410156251	-685.2276611328126	-375.6123962402344	730.3078613281251	-715.1407470703126	-421.556365966797	697.6287841796876	-634.3692016601564	-350.0994567871094	628.1019897460939	-1030.473510742188	-340.6778259277344	639.4763793945314	-772.316589355469	-436.644012451172	794.3510742187502	-907.5404052734377	-463.7597961425782	776.8025512695315	-935.643005371094	-465.8032226562501	777.325622558594	-878.7608032226565	-401.2144165039064	569.1409912109376	-1176.816772460938	-321.2294006347657	560.3401489257814	-1205.814331054688	-295.2302551269532	597.3844604492189	-1192.915771484375	-292.0209350585938	509.5440063476564	-1220.3134765625	-175.1384735107422	442.4158935546876	-1251.346923828125	-109.2507858276367	425.9712829589845	-1131.422241210938	-181.6792449951172	283.1295166015626	-1215.7958984375	-261.2460632324219	270.7477416992188	-1255.060668945313	-223.991195678711	250.7004852294922	-1239.7451171875	-258.1256713867188	182.9317779541016	-1199.953125	-382.0499572753907	89.9830780029297	-1218.871826171875	-325.5804443359376	98.42662048339847	-1138.038696289063	-440.0342102050782	52.90317535400392	-1147.730834960938	-222.8953704833985	53.55697250366212	-1195.641845703125	-230.5113677978516	57.14183425903322	-1244.743041992188	-293.4049987792969	37.40893936157227	-1282.190185546875	-361.3783874511719	537.5432128906251	-613.4030761718751	-297.9378051757813	545.9673461914064	-591.5401611328126	-277.9695434570313	572.4144287109376	-596.8292236328126	-245.7702941894532	482.2611083984376	-573.2083129882814	-200.3629913330079	440.4964294433595	-554.5196533203126	-117.8080444335938	441.6707458496095	-667.6439208984376	-181.3434753417969	334.8905639648438	-549.8712768554689	-287.0281677246094	303.9953308105469	-553.2997436523439	-248.1067504882813	277.9804077148438	-550.7252197265626	-251.2691802978516	227.738754272461	-577.7979736328126	-381.2093811035157	92.1060256958008	-596.3692626953126	-319.1348571777344	99.18186187744143	-666.8452758789064	-432.6309814453126	50.7526092529297	-671.2036132812501	-215.8121185302735	51.57766723632814	-604.2229003906251	-231.6458435058594	55.45559692382814	-558.8828735351564	-293.7736511230469	34.61762237548829	-529.0093994140626	
794	3.965	167.2580261230469	1138.515747070313	-869.2008056640627	6.457265853881838	1097.484985351563	-948.0609130859377	-17.71189117431641	1095.790893554688	-809.7283325195315	-68.64483642578126	1017.654174804688	-863.6321411132815	-350.2640991210938	847.3555297851565	-903.5223388671877	-7.54769277572632	868.2471923828127	-876.0572509765627	2.745522499084473	955.602966308594	-1025.516235351563	-137.4901275634766	967.2410888671877	-1203.095947265625	-139.9931945800782	918.9118652343752	-1219.061157226563	-181.217514038086	944.9484863281252	-1254.319946289063	-226.6627655029297	902.5862426757815	-1283.495361328125	-291.5943298339844	944.2996215820315	-1236.106811523438	-383.9435424804688	739.7890014648439	-1140.4287109375	-367.5908508300782	682.7222900390626	-1189.0283203125	-340.3463134765626	716.5350952148439	-1096.431030273438	6.060814380645754	923.3085937500002	-712.6754150390626	-158.6675415039063	914.8801269531252	-544.8102416992189	-177.2755737304688	869.8751220703127	-540.2009277343751	-218.0054931640626	902.1098632812502	-507.8189086914064	-265.9766235351563	880.789733886719	-496.0477294921876	-308.3768920898438	936.278259277344	-548.5852050781251	-428.747283935547	757.9500122070314	-685.2409667968751	-375.8934020996094	730.2756958007814	-715.1910400390626	-421.6760253906251	697.7132568359376	-634.3493652343751	-350.0976562500001	628.0942382812501	-1030.473510742188	-341.0525817871094	639.3010253906251	-772.276794433594	-436.7313537597657	794.3673095703127	-907.5413208007815	-463.7434082031251	776.8286132812502	-935.6781005859377	-465.941864013672	777.3422851562502	-878.769958496094	-401.2937622070314	569.1241455078126	-1176.7958984375	-321.4231567382813	560.3280029296876	-1205.85107421875	-295.2761535644532	597.3772583007814	-1192.913818359375	-291.9914245605469	509.4708251953126	-1220.311157226563	-175.2100524902344	442.4564819335939	-1251.319702148438	-109.237663269043	425.9799194335939	-1131.451049804688	-181.7340545654297	283.1448364257813	-1215.783935546875	-261.2684326171876	270.7447509765626	-1255.089477539063	-223.9169006347657	250.7500610351563	-1239.777709960938	-258.2610168457032	182.9955291748047	-1200.000366210938	-382.0879211425782	89.96331024169923	-1218.885498046875	-325.6281127929688	98.41569519042972	-1138.055786132813	-440.0382690429689	52.93217086791994	-1147.728881835938	-222.8526000976563	53.54962158203126	-1195.615478515625	-230.5066833496094	57.14031219482423	-1244.74365234375	-293.4069213867188	37.41650390625001	-1282.196166992188	-361.4883117675782	537.6083374023439	-613.3821411132814	-297.9733276367188	545.9973754882814	-591.5208740234376	-278.0489196777344	572.4218139648439	-596.8666381835939	-245.9231109619141	482.3090820312501	-573.1641235351564	-200.4441070556641	440.5261840820314	-554.4855346679689	-117.9136657714844	441.8536682128907	-667.6104736328126	-181.4095001220703	334.9353942871094	-549.8672485351564	-287.0809020996094	304.0133056640626	-553.3091430664064	-248.1141357421876	277.9866027832032	-550.7322387695314	-251.3023986816407	227.755355834961	-577.7904663085939	-381.2483825683594	92.07881927490236	-596.3548583984376	-319.1433715820313	99.15047454833987	-666.7789306640626	-432.6212158203126	50.75177001953126	-671.1845703125001	-215.8129882812501	51.57511138916017	-604.2238159179689	-231.6186523437501	55.44366836547853	-558.8676147460939	-293.7961730957032	34.60163879394532	-528.9907226562501	
795	3.97	167.3246307373047	1138.296752929688	-869.1057128906252	6.358313560485842	1097.249877929688	-947.977478027344	-17.61058235168457	1095.653930664063	-809.7459716796877	-68.5954055786133	1017.559692382813	-863.6223144531252	-350.2820129394532	847.3826293945315	-903.4895629882815	-7.815915107727053	868.1707153320315	-875.9841308593752	2.875265836715699	955.4954223632815	-1025.458129882813	-137.4586181640625	967.1542968750002	-1203.0615234375	-139.9763641357422	918.8604736328127	-1219.048095703125	-181.1566009521485	944.9223632812502	-1254.274169921875	-226.5666046142579	902.558532714844	-1283.5078125	-291.5858459472657	944.2683105468752	-1236.049438476563	-383.9043579101563	739.8286132812501	-1140.427734375	-367.5281066894532	682.7216186523439	-1188.992553710938	-340.3645629882813	716.5615234375001	-1096.422973632813	6.081995487213137	923.1245117187502	-712.6520996093751	-158.6710815429688	914.8598632812502	-544.8135986328126	-177.3806610107422	869.8604125976565	-540.1422729492189	-218.0221862792969	902.0796508789065	-507.7713317871095	-266.0187988281251	880.7955322265627	-496.061004638672	-308.5079040527344	936.3987426757815	-548.6259765625001	-428.743377685547	757.9724121093751	-685.2424316406251	-375.9503784179688	730.3858642578126	-715.1931152343751	-421.7391052246095	697.7465820312501	-634.3590087890626	-350.2330322265626	628.0648193359376	-1030.391723632813	-341.0851440429688	639.3374023437501	-772.2380981445315	-436.7254943847657	794.3885498046877	-907.535339355469	-463.775848388672	776.8323364257815	-935.6385498046877	-465.9401855468751	777.3670654296877	-878.798522949219	-401.4351501464845	569.1278686523439	-1176.78564453125	-321.4992065429688	560.3510131835939	-1205.839477539063	-295.3646850585938	597.4345092773439	-1192.942993164063	-292.1781616210938	509.6037597656251	-1220.314819335938	-175.2771606445313	442.4732360839845	-1251.324462890625	-109.3634719848633	425.9664916992189	-1131.535522460938	-181.7421569824219	283.2153930664063	-1215.787231445313	-261.3981323242188	270.7791442871094	-1255.114990234375	-223.9841613769532	250.7246093750001	-1239.900024414063	-258.3826599121094	183.0628967285157	-1200.027954101563	-382.1108093261719	89.97034454345705	-1218.894653320313	-325.6174621582032	98.45084381103518	-1138.064331054688	-440.009979248047	52.9286346435547	-1147.74609375	-222.8308258056641	53.56185531616212	-1195.617553710938	-230.4661865234376	57.14353942871095	-1244.743896484375	-293.4254760742188	37.42851257324219	-1282.19580078125	-361.5732116699219	537.6186523437501	-613.3427124023439	-298.0403442382813	546.0468139648439	-591.5362548828126	-278.0880432128907	572.4702758789064	-596.8485107421876	-245.9943389892579	482.3407592773439	-573.1648559570314	-200.447250366211	440.5435180664064	-554.4689331054689	-117.9398422241211	441.8141174316407	-667.5877075195314	-181.4244995117188	335.0093078613282	-549.7474365234376	-287.1329956054688	304.0194091796876	-553.2789916992189	-248.1681060791016	277.9962463378907	-550.7117309570314	-251.3412170410157	227.7501220703126	-577.7218627929689	-381.2513427734376	92.0564422607422	-596.3273315429689	-319.1466979980469	99.20118713378909	-666.8314208984376	-432.628875732422	50.7493362426758	-671.2033081054689	-215.8060913085938	51.59687423706056	-604.2139892578126	-231.6098175048829	55.46805953979494	-558.8945922851564	-293.8240966796876	34.61498641967774	-529.0020751953126	
